{
  "accessors": [
    {
      "bufferView": 2,
      "componentType": 5126,
      "count": 2835,
      "max": [
        77.2642593383789,
        89.95085906982422,
        82.3055419921875
      ],
      "min": [
        -48.593299865722656,
        -5.497077941894531,
        -67.87252807617188
      ],
      "type": "VEC3"
    },
    {
      "bufferView": 2,
      "byteOffset": 34020,
      "componentType": 5126,
      "count": 2835,
      "max": [
        1.0,
        1.0,
        1.0
      ],
      "min": [
        -1.0,
        -1.0,
        -1.0
      ],
      "type": "VEC3"
    },
    {
      "bufferView": 1,
      "componentType": 5126,
      "count": 2835,
      "max": [
        0.9928460121154785,
        0.9895849823951721
      ],
      "min": [
        0.02015499956905842,
        0.01295199990272522
      ],
      "type": "VEC2"
    },
    {
      "bufferView": 1,
      "byteOffset": 22680,
      "componentType": 5126,
      "count": 2835,
      "max": [
        0.9928460121154785,
        0.9895849823951721
      ],
      "min": [
        0.02015499956905842,
        0.01295199990272522
      ],
      "type": "VEC2"
    },
    {
      "bufferView": 0,
      "componentType": 5125,
      "count": 8664,
      "type": "SCALAR"
    }
  ],
  "asset": {
    "extras": {
      "author": "pixipui (https://sketchfab.com/pixipui)",
      "license": "CC-BY-4.0 (http://creativecommons.org/licenses/by/4.0/)",
      "source": "https://sketchfab.com/3d-models/isometric-cinema-8a344ce6d1d7464fbd97f865afbe68ae",
      "title": "Isometric: Cinema"
    },
    "generator": "Sketchfab-12.67.0",
    "version": "2.0"
  },
  "bufferViews": [
    {
      "buffer": 0,
      "byteLength": 34656,
      "name": "floatBufferViews",
      "target": 34963
    },
    {
      "buffer": 0,
      "byteLength": 45360,
      "byteOffset": 34656,
      "byteStride": 8,
      "name": "floatBufferViews",
      "target": 34962
    },
    {
      "buffer": 0,
      "byteLength": 68040,
      "byteOffset": 80016,
      "byteStride": 12,
      "name": "floatBufferViews",
      "target": 34962
    }
  ],
  "buffers": [
    {
      "byteLength": 148056,
      "uri": "scene.bin"
    }
  ],
  "extensionsUsed": [
    "KHR_materials_unlit"
  ],
  "images": [
    {
      "uri": "textures/rig_initialShadingGroup1_baseColor.png"
    }
  ],
  "materials": [
    {
      "doubleSided": true,
      "extensions": {
        "KHR_materials_unlit": {}
      },
      "name": "rig_initialShadingGroup1",
      "pbrMetallicRoughness": {
        "baseColorTexture": {
          "index": 0
        },
        "metallicFactor": 0.0
      }
    }
  ],
  "meshes": [
    {
      "name": "Cinema_Asset_rig_initialShadingGroup1_0",
      "primitives": [
        {
          "attributes": {
            "NORMAL": 1,
            "POSITION": 0,
            "TEXCOORD_0": 2,
            "TEXCOORD_1": 3
          },
          "indices": 4,
          "material": 0,
          "mode": 4
        }
      ]
    }
  ],
  "nodes": [
    {
      "children": [
        1
      ],
      "matrix": [
        0.06092908978462219,
        0.0,
        0.0,
        0.0,
        0.0,
        1.3528975669668196e-17,
        -0.06092908978462219,
        0.0,
        0.0,
        0.06092908978462219,
        1.3528975669668196e-17,
        0.0,
        0.0,
        0.0,
        0.0,
        1.0
      ],
      "name": "Sketchfab_model"
    },
    {
      "children": [
        2
      ],
      "matrix": [
        1.0,
        0.0,
        0.0,
        0.0,
        0.0,
        0.0,
        1.0,
        0.0,
        0.0,
        -1.0,
        0.0,
        0.0,
        0.0,
        0.0,
        0.0,
        1.0
      ],
      "name": "80c151a32bd549b3a6cf49407ac42f29.fbx"
    },
    {
      "children": [
        3
      ],
      "name": "RootNode"
    },
    {
      "children": [
        4
      ],
      "name": "Cinema_Asset"
    },
    {
      "mesh": 0,
      "name": "Cinema_Asset_rig_initialShadingGroup1_0"
    }
  ],
  "samplers": [
    {
      "magFilter": 9729,
      "minFilter": 9987,
      "wrapS": 10497,
      "wrapT": 10497
    }
  ],
  "scene": 0,
  "scenes": [
    {
      "name": "Sketchfab_Scene",
      "nodes": [
        0
      ]
    }
  ],
  "textures": [
    {
      "sampler": 0,
      "source": 0
    }
  ]
}
