{
  "accessors": [
    {
      "bufferView": 2,
      "componentType": 5126,
      "count": 268,
      "max": [
        1.8974175453186035,
        2.2908151149749756,
        6.195442199707031
      ],
      "min": [
        -1.8974175453186035,
        -2.2908151149749756,
        0.060472726821899414
      ],
      "type": "VEC3"
    },
    {
      "bufferView": 2,
      "byteOffset": 3216,
      "componentType": 5126,
      "count": 268,
      "max": [
        1.0,
        1.0,
        1.0
      ],
      "min": [
        -1.0,
        -1.0,
        -1.0
      ],
      "type": "VEC3"
    },
    {
      "bufferView": 1,
      "componentType": 5126,
      "count": 268,
      "max": [
        0.6924920082092285,
        0.7737208604812622
      ],
      "min": [
        0.16431796550750732,
        0.19328594207763672
      ],
      "type": "VEC2"
    },
    {
      "bufferView": 0,
      "componentType": 5125,
      "count": 450,
      "type": "SCALAR"
    },
    {
      "bufferView": 2,
      "byteOffset": 6432,
      "componentType": 5126,
      "count": 4,
      "max": [
        1.7187963724136353,
        0.21787095069885254,
        2.102592945098877
      ],
      "min": [
        1.690256953239441,
        -1.728162169456482,
        0.8576194047927856
      ],
      "type": "VEC3"
    },
    {
      "bufferView": 2,
      "byteOffset": 6480,
      "componentType": 5126,
      "count": 4,
      "max": [
        0.9997374415397644,
        0.0,
        -0.022917697206139565
      ],
      "min": [
        0.9997374415397644,
        0.0,
        -0.022917697206139565
      ],
      "type": "VEC3"
    },
    {
      "bufferView": 1,
      "byteOffset": 2144,
      "componentType": 5126,
      "count": 4,
      "max": [
        0.4796351492404938,
        0.28474441170692444
      ],
      "min": [
        0.4796351492404938,
        0.28474441170692444
      ],
      "type": "VEC2"
    },
    {
      "bufferView": 0,
      "byteOffset": 1800,
      "componentType": 5125,
      "count": 6,
      "type": "SCALAR"
    },
    {
      "bufferView": 2,
      "byteOffset": 6528,
      "componentType": 5126,
      "count": 179,
      "max": [
        1.8121167421340942,
        1.7118721008300781,
        2.183004379272461
      ],
      "min": [
        1.5431677103042603,
        0.6688300967216492,
        0.14873027801513672
      ],
      "type": "VEC3"
    },
    {
      "bufferView": 2,
      "byteOffset": 8676,
      "componentType": 5126,
      "count": 179,
      "max": [
        1.0,
        1.0,
        1.0
      ],
      "min": [
        -2.1961666263337065e-08,
        -1.0,
        -1.0
      ],
      "type": "VEC3"
    },
    {
      "bufferView": 1,
      "byteOffset": 2176,
      "componentType": 5126,
      "count": 179,
      "max": [
        0.6640312671661377,
        0.19227957725524902
      ],
      "min": [
        0.6157275438308716,
        0.1610834300518036
      ],
      "type": "VEC2"
    },
    {
      "bufferView": 0,
      "byteOffset": 1824,
      "componentType": 5125,
      "count": 336,
      "type": "SCALAR"
    },
    {
      "bufferView": 2,
      "byteOffset": 10824,
      "componentType": 5126,
      "count": 18,
      "max": [
        1.7643381357192993,
        1.6699213981628418,
        2.139864206314087
      ],
      "min": [
        1.7643381357192993,
        0.7107807993888855,
        0.5145483016967773
      ],
      "type": "VEC3"
    },
    {
      "bufferView": 2,
      "byteOffset": 11040,
      "componentType": 5126,
      "count": 18,
      "max": [
        1.0,
        0.0,
        0.0
      ],
      "min": [
        1.0,
        0.0,
        0.0
      ],
      "type": "VEC3"
    },
    {
      "bufferView": 1,
      "byteOffset": 3608,
      "componentType": 5126,
      "count": 18,
      "max": [
        0.6329428553581238,
        0.22800415754318237
      ],
      "min": [
        0.6329428553581238,
        0.22800415754318237
      ],
      "type": "VEC2"
    },
    {
      "bufferView": 0,
      "byteOffset": 3168,
      "componentType": 5125,
      "count": 24,
      "type": "SCALAR"
    },
    {
      "bufferView": 2,
      "byteOffset": 11256,
      "componentType": 5126,
      "count": 144,
      "max": [
        1.837687373161316,
        1.6499453783035278,
        5.261211395263672
      ],
      "min": [
        1.7027753591537476,
        -1.6452553272247314,
        4.045544147491455
      ],
      "type": "VEC3"
    },
    {
      "bufferView": 2,
      "byteOffset": 12984,
      "componentType": 5126,
      "count": 144,
      "max": [
        0.9997374415397644,
        0.999288022518158,
        0.9999426603317261
      ],
      "min": [
        -0.022925786674022675,
        -0.999288022518158,
        -0.9999426603317261
      ],
      "type": "VEC3"
    },
    {
      "bufferView": 1,
      "byteOffset": 3752,
      "componentType": 5126,
      "count": 144,
      "max": [
        0.5321250557899475,
        0.3333170711994171
      ],
      "min": [
        0.5321250557899475,
        0.3333170711994171
      ],
      "type": "VEC2"
    },
    {
      "bufferView": 0,
      "byteOffset": 3264,
      "componentType": 5125,
      "count": 216,
      "type": "SCALAR"
    },
    {
      "bufferView": 2,
      "byteOffset": 14712,
      "componentType": 5126,
      "count": 12,
      "max": [
        1.786280632019043,
        1.591704249382019,
        5.2024407386779785
      ],
      "min": [
        1.7611339092254639,
        -1.5870141983032227,
        4.105463027954102
      ],
      "type": "VEC3"
    },
    {
      "bufferView": 2,
      "byteOffset": 14856,
      "componentType": 5126,
      "count": 12,
      "max": [
        0.9997373819351196,
        0.0,
        -0.02291761338710785
      ],
      "min": [
        0.9997373819351196,
        0.0,
        -0.022917620837688446
      ],
      "type": "VEC3"
    },
    {
      "bufferView": 1,
      "byteOffset": 4904,
      "componentType": 5126,
      "count": 12,
      "max": [
        0.5210554599761963,
        0.6100568771362305
      ],
      "min": [
        0.5210554599761963,
        0.6100568771362305
      ],
      "type": "VEC2"
    },
    {
      "bufferView": 0,
      "byteOffset": 4128,
      "componentType": 5125,
      "count": 18,
      "type": "SCALAR"
    },
    {
      "bufferView": 2,
      "byteOffset": 15000,
      "componentType": 5126,
      "count": 1024,
      "max": [
        1.8058489561080933,
        2.1517333984375,
        5.479580402374268
      ],
      "min": [
        -1.7963920831680298,
        -2.1747207641601563,
        0.28312814235687256
      ],
      "type": "VEC3"
    },
    {
      "bufferView": 2,
      "byteOffset": 27288,
      "componentType": 5126,
      "count": 1024,
      "max": [
        1.0,
        1.0,
        1.0
      ],
      "min": [
        -1.0,
        -1.0,
        -1.0
      ],
      "type": "VEC3"
    },
    {
      "bufferView": 1,
      "byteOffset": 5000,
      "componentType": 5126,
      "count": 1024,
      "max": [
        0.693353533744812,
        0.6490899324417114
      ],
      "min": [
        0.693353533744812,
        0.6490899324417114
      ],
      "type": "VEC2"
    },
    {
      "bufferView": 0,
      "byteOffset": 4200,
      "componentType": 5125,
      "count": 1536,
      "type": "SCALAR"
    },
    {
      "bufferView": 2,
      "byteOffset": 39576,
      "componentType": 5126,
      "count": 242,
      "max": [
        1.9364690780639648,
        0.6750016808509827,
        0.11705710738897324
      ],
      "min": [
        -1.4218454360961914,
        -1.4285995960235596,
        -0.11705722659826279
      ],
      "type": "VEC3"
    },
    {
      "bufferView": 2,
      "byteOffset": 42480,
      "componentType": 5126,
      "count": 242,
      "max": [
        1.0,
        0.9909191727638245,
        1.0
      ],
      "min": [
        -1.0,
        -0.9909191727638245,
        -1.0
      ],
      "type": "VEC3"
    },
    {
      "bufferView": 1,
      "byteOffset": 13192,
      "componentType": 5126,
      "count": 242,
      "max": [
        0.2745828330516815,
        0.744537353515625
      ],
      "min": [
        0.20313376188278198,
        0.7231889963150024
      ],
      "type": "VEC2"
    },
    {
      "bufferView": 0,
      "byteOffset": 10344,
      "componentType": 5125,
      "count": 420,
      "type": "SCALAR"
    },
    {
      "bufferView": 2,
      "byteOffset": 45384,
      "componentType": 5126,
      "count": 129,
      "max": [
        3.3445889949798584,
        2.1605608463287354,
        3.7869417667388916
      ],
      "min": [
        1.7606892585754395,
        -2.1605608463287354,
        2.364940643310547
      ],
      "type": "VEC3"
    },
    {
      "bufferView": 2,
      "byteOffset": 46932,
      "componentType": 5126,
      "count": 129,
      "max": [
        0.9761545658111572,
        1.0,
        0.9769238233566284
      ],
      "min": [
        -0.9998234510421753,
        -1.0,
        -0.9997621774673462
      ],
      "type": "VEC3"
    },
    {
      "bufferView": 1,
      "byteOffset": 15128,
      "componentType": 5126,
      "count": 129,
      "max": [
        0.7497172951698303,
        0.5359424352645874
      ],
      "min": [
        0.0,
        0.0
      ],
      "type": "VEC2"
    },
    {
      "bufferView": 0,
      "byteOffset": 12024,
      "componentType": 5125,
      "count": 186,
      "type": "SCALAR"
    }
  ],
  "asset": {
    "extras": {
      "author": "Emma-Lie Kamping (https://sketchfab.com/Ellemieke25)",
      "license": "CC-BY-4.0 (http://creativecommons.org/licenses/by/4.0/)",
      "source": "https://sketchfab.com/3d-models/low-poly-cafe-d8445f89454f49e388895fe806beca69",
      "title": "Low-Poly Cafe"
    },
    "generator": "Sketchfab-12.65.0",
    "version": "2.0"
  },
  "bufferViews": [
    {
      "buffer": 0,
      "byteLength": 12768,
      "name": "floatBufferViews",
      "target": 34963
    },
    {
      "buffer": 0,
      "byteLength": 16160,
      "byteOffset": 12768,
      "byteStride": 8,
      "name": "floatBufferViews",
      "target": 34962
    },
    {
      "buffer": 0,
      "byteLength": 48480,
      "byteOffset": 28928,
      "byteStride": 12,
      "name": "floatBufferViews",
      "target": 34962
    }
  ],
  "buffers": [
    {
      "byteLength": 77408,
      "uri": "scene.bin"
    }
  ],
  "images": [
    {
      "uri": "textures/Cafe_baseColor.jpeg"
    }
  ],
  "materials": [
    {
      "doubleSided": true,
      "name": "Cafe",
      "pbrMetallicRoughness": {
        "baseColorTexture": {
          "index": 0
        },
        "metallicFactor": 0.0,
        "roughnessFactor": 0.85
      }
    },
    {
      "doubleSided": true,
      "name": "Glass",
      "pbrMetallicRoughness": {
        "baseColorTexture": {
          "index": 0
        },
        "metallicFactor": 0.0,
        "roughnessFactor": 0.107
      }
    }
  ],
  "meshes": [
    {
      "name": "Cafe_Cafe_0",
      "primitives": [
        {
          "attributes": {
            "NORMAL": 1,
            "POSITION": 0,
            "TEXCOORD_0": 2
          },
          "indices": 3,
          "material": 0,
          "mode": 4
        }
      ]
    },
    {
      "name": "Cafe_Glass_0",
      "primitives": [
        {
          "attributes": {
            "NORMAL": 5,
            "POSITION": 4,
            "TEXCOORD_0": 6
          },
          "indices": 7,
          "material": 1,
          "mode": 4
        }
      ]
    },
    {
      "name": "Door_Cafe_0",
      "primitives": [
        {
          "attributes": {
            "NORMAL": 9,
            "POSITION": 8,
            "TEXCOORD_0": 10
          },
          "indices": 11,
          "material": 0,
          "mode": 4
        }
      ]
    },
    {
      "name": "Door_Glass_0",
      "primitives": [
        {
          "attributes": {
            "NORMAL": 13,
            "POSITION": 12,
            "TEXCOORD_0": 14
          },
          "indices": 15,
          "material": 1,
          "mode": 4
        }
      ]
    },
    {
      "name": "Windows_Cafe_0",
      "primitives": [
        {
          "attributes": {
            "NORMAL": 17,
            "POSITION": 16,
            "TEXCOORD_0": 18
          },
          "indices": 19,
          "material": 0,
          "mode": 4
        }
      ]
    },
    {
      "name": "Windows_Glass_0",
      "primitives": [
        {
          "attributes": {
            "NORMAL": 21,
            "POSITION": 20,
            "TEXCOORD_0": 22
          },
          "indices": 23,
          "material": 1,
          "mode": 4
        }
      ]
    },
    {
      "name": "Bricks_Cafe_0",
      "primitives": [
        {
          "attributes": {
            "NORMAL": 25,
            "POSITION": 24,
            "TEXCOORD_0": 26
          },
          "indices": 27,
          "material": 0,
          "mode": 4
        }
      ]
    },
    {
      "name": "Sign_Cafe_0",
      "primitives": [
        {
          "attributes": {
            "NORMAL": 29,
            "POSITION": 28,
            "TEXCOORD_0": 30
          },
          "indices": 31,
          "material": 0,
          "mode": 4
        }
      ]
    },
    {
      "name": "Cloth thing_Cafe_0",
      "primitives": [
        {
          "attributes": {
            "NORMAL": 33,
            "POSITION": 32,
            "TEXCOORD_0": 34
          },
          "indices": 35,
          "material": 0,
          "mode": 4
        }
      ]
    }
  ],
  "nodes": [
    {
      "children": [
        1
      ],
      "matrix": [
        -2.220446049250313e-16,
        -2.220446049250313e-16,
        1.0,
        0.0,
        1.0,
        -4.930380657631324e-32,
        2.220446049250313e-16,
        0.0,
        0.0,
        1.0,
        2.220446049250313e-16,
        0.0,
        26.31713104248047,
        -3.0266202858086226e-05,
        -118.40303039550781,
        1.0
      ],
      "name": "Sketchfab_model"
    },
    {
      "children": [
        2
      ],
      "matrix": [
        1.0,
        0.0,
        0.0,
        0.0,
        0.0,
        0.0,
        1.0,
        0.0,
        0.0,
        -1.0,
        0.0,
        0.0,
        0.0,
        0.0,
        0.0,
        1.0
      ],
      "name": "7e3b41593b064640a4e6079ea84daec4.fbx"
    },
    {
      "children": [
        3,
        6,
        9,
        12,
        14,
        16
      ],
      "name": "RootNode"
    },
    {
      "children": [
        4,
        5
      ],
      "matrix": [
        100.0,
        0.0,
        0.0,
        0.0,
        0.0,
        -1.629206793918314e-05,
        -99.99999999999868,
        0.0,
        0.0,
        99.99999999999868,
        -1.629206793918314e-05,
        0.0,
        0.0,
        0.0,
        0.0,
        1.0
      ],
      "name": "Cafe"
    },
    {
      "mesh": 0,
      "name": "Cafe_Cafe_0"
    },
    {
      "mesh": 1,
      "name": "Cafe_Glass_0"
    },
    {
      "children": [
        7,
        8
      ],
      "matrix": [
        100.0,
        0.0,
        0.0,
        0.0,
        0.0,
        -1.629206793918314e-05,
        -99.99999999999868,
        0.0,
        0.0,
        99.99999999999868,
        -1.629206793918314e-05,
        0.0,
        0.0,
        0.0,
        0.0,
        1.0
      ],
      "name": "Door"
    },
    {
      "mesh": 2,
      "name": "Door_Cafe_0"
    },
    {
      "mesh": 3,
      "name": "Door_Glass_0"
    },
    {
      "children": [
        10,
        11
      ],
      "matrix": [
        100.0,
        0.0,
        0.0,
        0.0,
        0.0,
        -1.629206793918314e-05,
        -99.99999999999868,
        0.0,
        0.0,
        99.99999999999868,
        -1.629206793918314e-05,
        0.0,
        0.0,
        0.0,
        0.0,
        1.0
      ],
      "name": "Windows"
    },
    {
      "mesh": 4,
      "name": "Windows_Cafe_0"
    },
    {
      "mesh": 5,
      "name": "Windows_Glass_0"
    },
    {
      "children": [
        13
      ],
      "matrix": [
        100.0,
        0.0,
        0.0,
        0.0,
        0.0,
        -1.629206793918314e-05,
        -99.99999999999868,
        0.0,
        0.0,
        99.99999999999868,
        -1.629206793918314e-05,
        0.0,
        0.0,
        0.0,
        0.0,
        1.0
      ],
      "name": "Bricks"
    },
    {
      "mesh": 6,
      "name": "Bricks_Cafe_0"
    },
    {
      "children": [
        15
      ],
      "matrix": [
        4.279966865632729e-06,
        56.689879929839115,
        -4.274906765027203,
        0.0,
        -4.614865024248124e-06,
        -4.274906765026856,
        -56.689879929839115,
        0.0,
        -56.85083770751918,
        4.614865343373645e-06,
        4.279967140195559e-06,
        0.0,
        153.26649475097656,
        431.4112548828125,
        -274.6263732910156,
        1.0
      ],
      "name": "Sign"
    },
    {
      "mesh": 7,
      "name": "Sign_Cafe_0"
    },
    {
      "children": [
        17
      ],
      "matrix": [
        100.0,
        0.0,
        0.0,
        0.0,
        0.0,
        -1.629206793918314e-05,
        -99.99999999999868,
        0.0,
        0.0,
        99.99999999999868,
        -1.629206793918314e-05,
        0.0,
        0.0,
        0.0,
        0.0,
        1.0
      ],
      "name": "Cloth thing"
    },
    {
      "mesh": 8,
      "name": "Cloth thing_Cafe_0"
    }
  ],
  "samplers": [
    {
      "magFilter": 9729,
      "minFilter": 9987,
      "wrapS": 10497,
      "wrapT": 10497
    }
  ],
  "scene": 0,
  "scenes": [
    {
      "name": "Sketchfab_Scene",
      "nodes": [
        0
      ]
    }
  ],
  "textures": [
    {
      "sampler": 0,
      "source": 0
    }
  ]
}
