{
  "accessors": [
    {
      "bufferView": 2,
      "componentType": 5126,
      "count": 6877,
      "max": [
        1.5664069652557373,
        2.501573085784912,
        0.6405289769172668
      ],
      "min": [
        -1.239825963973999,
        0.0008350000134669244,
        -0.8539220094680786
      ],
      "type": "VEC3"
    },
    {
      "bufferView": 2,
      "byteOffset": 82524,
      "componentType": 5126,
      "count": 6877,
      "max": [
        1.0,
        1.0,
        1.0
      ],
      "min": [
        -1.0,
        -1.0,
        -1.0
      ],
      "type": "VEC3"
    },
    {
      "bufferView": 1,
      "componentType": 5126,
      "count": 6877,
      "max": [
        0.7835450172424316,
        0.9092350006103516
      ],
      "min": [
        0.032969001680612564,
        0.06309700012207031
      ],
      "type": "VEC2"
    },
    {
      "bufferView": 0,
      "componentType": 5125,
      "count": 23634,
      "type": "SCALAR"
    },
    {
      "bufferView": 2,
      "byteOffset": 165048,
      "componentType": 5126,
      "count": 96,
      "max": [
        1.2563879489898682,
        1.2678329944610596,
        0.540090024471283
      ],
      "min": [
        -1.1896599531173706,
        0.7698860168457031,
        -0.540090024471283
      ],
      "type": "VEC3"
    },
    {
      "bufferView": 2,
      "byteOffset": 166200,
      "componentType": 5126,
      "count": 96,
      "max": [
        0.656685471534729,
        0.7541646957397461,
        1.0
      ],
      "min": [
        -0.9958386421203613,
        -0.03259802982211113,
        -1.0
      ],
      "type": "VEC3"
    },
    {
      "bufferView": 1,
      "byteOffset": 55016,
      "componentType": 5126,
      "count": 96,
      "max": [
        0.07603400200605392,
        0.06309700012207031
      ],
      "min": [
        0.07603400200605392,
        0.06309700012207031
      ],
      "type": "VEC2"
    },
    {
      "bufferView": 0,
      "byteOffset": 94536,
      "componentType": 5125,
      "count": 234,
      "type": "SCALAR"
    },
    {
      "bufferView": 2,
      "byteOffset": 167352,
      "componentType": 5126,
      "count": 694,
      "max": [
        6.042545318603516,
        9.999345779418945,
        8.206870079040527
      ],
      "min": [
        -6.122008323669434,
        -0.7707479000091553,
        -10.95383071899414
      ],
      "type": "VEC3"
    },
    {
      "bufferView": 2,
      "byteOffset": 175680,
      "componentType": 5126,
      "count": 694,
      "max": [
        0.9910505414009094,
        0.9661226868629456,
        1.0
      ],
      "min": [
        -0.9999784231185913,
        -0.9661227464675903,
        -1.0
      ],
      "type": "VEC3"
    },
    {
      "bufferView": 1,
      "byteOffset": 55784,
      "componentType": 5126,
      "count": 694,
      "max": [
        1.0,
        1.0
      ],
      "min": [
        0.0,
        0.0
      ],
      "type": "VEC2"
    },
    {
      "bufferView": 0,
      "byteOffset": 95472,
      "componentType": 5125,
      "count": 1146,
      "type": "SCALAR"
    }
  ],
  "asset": {
    "extras": {
      "author": "assetfactory (https://sketchfab.com/assetfactory)",
      "license": "SKETCHFAB Standard (https://sketchfab.com/licenses)",
      "source": "https://sketchfab.com/3d-models/low-poly-car-2-54c63fa8d7864720afda5e568d7eb577",
      "title": "Low poly car 2"
    },
    "generator": "Sketchfab-16.33.0",
    "version": "2.0"
  },
  "bufferViews": [
    {
      "buffer": 0,
      "byteLength": 100056,
      "name": "floatBufferViews",
      "target": 34963
    },
    {
      "buffer": 0,
      "byteLength": 61336,
      "byteOffset": 100056,
      "byteStride": 8,
      "name": "floatBufferViews",
      "target": 34962
    },
    {
      "buffer": 0,
      "byteLength": 184008,
      "byteOffset": 161392,
      "byteStride": 12,
      "name": "floatBufferViews",
      "target": 34962
    }
  ],
  "buffers": [
    {
      "byteLength": 345400,
      "uri": "scene.bin"
    }
  ],
  "images": [
    {
      "uri": "textures/TransportPack_baseColor.png"
    },
    {
      "uri": "textures/TransportPack_tr_baseColor.png"
    }
  ],
  "materials": [
    {
      "alphaMode": "BLEND",
      "doubleSided": true,
      "name": "TransportPack",
      "pbrMetallicRoughness": {
        "baseColorTexture": {
          "index": 0
        },
        "metallicFactor": 0.0,
        "roughnessFactor": 0.9991779073720042
      }
    },
    {
      "alphaMode": "BLEND",
      "doubleSided": true,
      "name": "TransportPack_tr",
      "pbrMetallicRoughness": {
        "baseColorTexture": {
          "index": 1
        },
        "metallicFactor": 0.0,
        "roughnessFactor": 0.8211145618000169
      }
    },
    {
      "alphaMode": "BLEND",
      "doubleSided": true,
      "name": "Collider",
      "pbrMetallicRoughness": {
        "baseColorFactor": [
          1.0,
          0.0,
          0.0,
          0.0
        ],
        "metallicFactor": 0.0,
        "roughnessFactor": 0.0
      }
    }
  ],
  "meshes": [
    {
      "name": "Transport2_TransportPack_0",
      "primitives": [
        {
          "attributes": {
            "NORMAL": 1,
            "POSITION": 0,
            "TEXCOORD_0": 2
          },
          "indices": 3,
          "material": 0,
          "mode": 4
        }
      ]
    },
    {
      "name": "Transport2_TransportPack_tr_0",
      "primitives": [
        {
          "attributes": {
            "NORMAL": 5,
            "POSITION": 4,
            "TEXCOORD_0": 6
          },
          "indices": 7,
          "material": 1,
          "mode": 4
        }
      ]
    },
    {
      "name": "Collider_Collider_0",
      "primitives": [
        {
          "attributes": {
            "NORMAL": 9,
            "POSITION": 8,
            "TEXCOORD_0": 10
          },
          "indices": 11,
          "material": 2,
          "mode": 4
        }
      ]
    }
  ],
  "nodes": [
    {
      "children": [
        1
      ],
      "matrix": [
        1.0,
        0.0,
        0.0,
        0.0,
        0.0,
        2.220446049250313e-16,
        -1.0,
        0.0,
        0.0,
        1.0,
        2.220446049250313e-16,
        0.0,
        0.0,
        0.0,
        0.0,
        1.0
      ],
      "name": "Sketchfab_model"
    },
    {
      "children": [
        2
      ],
      "matrix": [
        0.009999999776482582,
        0.0,
        0.0,
        0.0,
        0.0,
        0.0,
        0.009999999776482582,
        0.0,
        0.0,
        -0.009999999776482582,
        0.0,
        0.0,
        0.0,
        0.0,
        0.0,
        1.0
      ],
      "name": "Transport2C.fbx"
    },
    {
      "children": [
        3,
        6
      ],
      "name": "RootNode"
    },
    {
      "children": [
        4,
        5
      ],
      "matrix": [
        100.0,
        0.0,
        0.0,
        0.0,
        0.0,
        99.99999999999866,
        1.6292067073209114e-05,
        0.0,
        0.0,
        -1.6292067073209114e-05,
        99.99999999999866,
        0.0,
        0.0,
        0.0,
        0.0,
        1.0
      ],
      "name": "Transport2"
    },
    {
      "mesh": 0,
      "name": "Transport2_TransportPack_0"
    },
    {
      "mesh": 1,
      "name": "Transport2_TransportPack_tr_0"
    },
    {
      "children": [
        7
      ],
      "matrix": [
        23.046150575848877,
        -6.165765670555204,
        -8.284252546169066e-07,
        0.0,
        6.16576567055523,
        23.04615057584887,
        8.211722604536944e-07,
        0.0,
        1.9270019074222204e-07,
        -3.3011332182723325e-07,
        7.817722797393789,
        0.0,
        0.0,
        4.470348358154297e-06,
        0.0,
        1.0
      ],
      "name": "Collider"
    },
    {
      "mesh": 2,
      "name": "Collider_Collider_0"
    }
  ],
  "samplers": [
    {
      "magFilter": 9729,
      "minFilter": 9987,
      "wrapS": 10497,
      "wrapT": 10497
    }
  ],
  "scene": 0,
  "scenes": [
    {
      "name": "Sketchfab_Scene",
      "nodes": [
        0
      ]
    }
  ],
  "textures": [
    {
      "sampler": 0,
      "source": 0
    },
    {
      "sampler": 0,
      "source": 1
    }
  ]
}
