{
  "accessors": [
    {
      "bufferView": 2,
      "componentType": 5126,
      "count": 1044,
      "max": [
        1.4261599779129028,
        2.596139907836914,
        -1.2827099561691284
      ],
      "min": [
        -1.3859699964523315,
        -1.1297399997711182,
        -5.965670108795166
      ],
      "type": "VEC3"
    },
    {
      "bufferView": 2,
      "byteOffset": 12528,
      "componentType": 5126,
      "count": 1044,
      "max": [
        0.9965163469314575,
        0.9999693036079407,
        1.0
      ],
      "min": [
        -0.9999691247940063,
        -0.9999683499336243,
        -1.0
      ],
      "type": "VEC3"
    },
    {
      "bufferView": 1,
      "componentType": 5126,
      "count": 1044,
      "max": [
        0.9933909773826599,
        0.937932014465332
      ],
      "min": [
        -0.01078409980982542,
        0.005587699823081493
      ],
      "type": "VEC2"
    },
    {
      "bufferView": 0,
      "componentType": 5125,
      "count": 5052,
      "type": "SCALAR"
    },
    {
      "bufferView": 2,
      "byteOffset": 25056,
      "componentType": 5126,
      "count": 47,
      "max": [
        -0.8525400161743164,
        0.12232799828052521,
        -2.98334002494812
      ],
      "min": [
        -1.5463900566101074,
        -0.19366000592708588,
        -3.279360055923462
      ],
      "type": "VEC3"
    },
    {
      "bufferView": 2,
      "byteOffset": 25620,
      "componentType": 5126,
      "count": 47,
      "max": [
        1.0,
        0.999381422996521,
        0.999968945980072
      ],
      "min": [
        -1.0,
        -0.999381422996521,
        -0.9998757839202881
      ],
      "type": "VEC3"
    },
    {
      "bufferView": 1,
      "byteOffset": 8352,
      "componentType": 5126,
      "count": 47,
      "max": [
        0.014592999592423439,
        0.98580402135849
      ],
      "min": [
        0.011773400008678436,
        0.9828349947929382
      ],
      "type": "VEC2"
    },
    {
      "bufferView": 0,
      "byteOffset": 20208,
      "componentType": 5125,
      "count": 240,
      "type": "SCALAR"
    },
    {
      "bufferView": 2,
      "byteOffset": 26184,
      "componentType": 5126,
      "count": 47,
      "max": [
        1.5461399555206299,
        0.12232799828052521,
        -2.98334002494812
      ],
      "min": [
        0.8525400161743164,
        -0.19366000592708588,
        -3.279360055923462
      ],
      "type": "VEC3"
    },
    {
      "bufferView": 2,
      "byteOffset": 26748,
      "componentType": 5126,
      "count": 47,
      "max": [
        1.0,
        0.9993813633918762,
        0.9999688863754272
      ],
      "min": [
        -1.0,
        -0.999381422996521,
        -0.9998757243156433
      ],
      "type": "VEC3"
    },
    {
      "bufferView": 1,
      "byteOffset": 8728,
      "componentType": 5126,
      "count": 47,
      "max": [
        0.014665300026535988,
        0.9857289791107178
      ],
      "min": [
        0.011700999923050404,
        0.9829099774360657
      ],
      "type": "VEC2"
    },
    {
      "bufferView": 0,
      "byteOffset": 21168,
      "componentType": 5125,
      "count": 240,
      "type": "SCALAR"
    },
    {
      "bufferView": 2,
      "byteOffset": 27312,
      "componentType": 5126,
      "count": 64,
      "max": [
        -0.2744140028953552,
        0.13714499771595,
        -2.985719919204712
      ],
      "min": [
        -1.025879979133606,
        -0.20847700536251068,
        -3.2770400047302246
      ],
      "type": "VEC3"
    },
    {
      "bufferView": 2,
      "byteOffset": 28080,
      "componentType": 5126,
      "count": 64,
      "max": [
        1.0,
        0.9994727969169617,
        0.9998759031295776
      ],
      "min": [
        -1.0,
        -0.9994727969169617,
        -0.9998770952224731
      ],
      "type": "VEC3"
    },
    {
      "bufferView": 1,
      "byteOffset": 9104,
      "componentType": 5126,
      "count": 64,
      "max": [
        0.014851000159978867,
        0.9858729839324951
      ],
      "min": [
        0.011515299789607525,
        0.9827659726142883
      ],
      "type": "VEC2"
    },
    {
      "bufferView": 0,
      "byteOffset": 22128,
      "componentType": 5125,
      "count": 336,
      "type": "SCALAR"
    },
    {
      "bufferView": 2,
      "byteOffset": 28848,
      "componentType": 5126,
      "count": 405,
      "max": [
        -1.3206700086593628,
        0.19113300740718842,
        -2.8987998962402344
      ],
      "min": [
        -2.1046299934387207,
        -0.2624650001525879,
        -3.4990200996398926
      ],
      "type": "VEC3"
    },
    {
      "bufferView": 2,
      "byteOffset": 33708,
      "componentType": 5126,
      "count": 405,
      "max": [
        0.9999692440032959,
        0.9974984526634216,
        0.9998764395713806
      ],
      "min": [
        -1.0,
        -0.9986081719398499,
        -0.9974988698959351
      ],
      "type": "VEC3"
    },
    {
      "bufferView": 1,
      "byteOffset": 9616,
      "componentType": 5126,
      "count": 405,
      "max": [
        0.06706999987363815,
        0.9656969904899597
      ],
      "min": [
        0.035962700843811035,
        0.9610689878463745
      ],
      "type": "VEC2"
    },
    {
      "bufferView": 0,
      "byteOffset": 23472,
      "componentType": 5125,
      "count": 1614,
      "type": "SCALAR"
    },
    {
      "bufferView": 2,
      "byteOffset": 38568,
      "componentType": 5126,
      "count": 64,
      "max": [
        1.0261199474334717,
        0.13714499771595,
        -2.985719919204712
      ],
      "min": [
        0.2744140028953552,
        -0.20847700536251068,
        -3.2770400047302246
      ],
      "type": "VEC3"
    },
    {
      "bufferView": 2,
      "byteOffset": 39336,
      "componentType": 5126,
      "count": 64,
      "max": [
        1.0,
        0.9994741082191467,
        0.9998759627342224
      ],
      "min": [
        -1.0,
        -0.9994741678237915,
        -0.9998757839202881
      ],
      "type": "VEC3"
    },
    {
      "bufferView": 1,
      "byteOffset": 12856,
      "componentType": 5126,
      "count": 64,
      "max": [
        0.014736499637365341,
        0.9859870076179504
      ],
      "min": [
        0.01162980031222105,
        0.9826520085334778
      ],
      "type": "VEC2"
    },
    {
      "bufferView": 0,
      "byteOffset": 29928,
      "componentType": 5125,
      "count": 336,
      "type": "SCALAR"
    },
    {
      "bufferView": 2,
      "byteOffset": 40104,
      "componentType": 5126,
      "count": 405,
      "max": [
        2.1046299934387207,
        0.19113300740718842,
        -2.8987998962402344
      ],
      "min": [
        1.3206700086593628,
        -0.2624650001525879,
        -3.4990200996398926
      ],
      "type": "VEC3"
    },
    {
      "bufferView": 2,
      "byteOffset": 44964,
      "componentType": 5126,
      "count": 405,
      "max": [
        1.0,
        0.9974983334541321,
        0.9998757839202881
      ],
      "min": [
        -0.9999693632125854,
        -0.9986081719398499,
        -0.9974992275238037
      ],
      "type": "VEC3"
    },
    {
      "bufferView": 1,
      "byteOffset": 13368,
      "componentType": 5126,
      "count": 405,
      "max": [
        0.06706990301609039,
        0.9656969904899597
      ],
      "min": [
        0.035962700843811035,
        0.9610689878463745
      ],
      "type": "VEC2"
    },
    {
      "bufferView": 0,
      "byteOffset": 31272,
      "componentType": 5125,
      "count": 1614,
      "type": "SCALAR"
    },
    {
      "bufferView": 2,
      "byteOffset": 49824,
      "componentType": 5126,
      "count": 1348,
      "max": [
        0.44726601243019104,
        0.40579500794410706,
        0.7664179801940918
      ],
      "min": [
        -0.45214900374412537,
        -0.4838390052318573,
        -3.406980037689209
      ],
      "type": "VEC3"
    },
    {
      "bufferView": 2,
      "byteOffset": 66000,
      "componentType": 5126,
      "count": 1348,
      "max": [
        1.0,
        0.9999690055847168,
        1.0
      ],
      "min": [
        -1.0,
        -0.9997207522392273,
        -0.9998759627342224
      ],
      "type": "VEC3"
    },
    {
      "bufferView": 1,
      "byteOffset": 16608,
      "componentType": 5126,
      "count": 1348,
      "max": [
        0.06727340072393417,
        0.9861199855804443
      ],
      "min": [
        0.012245800346136093,
        0.9570220112800598
      ],
      "type": "VEC2"
    },
    {
      "bufferView": 0,
      "byteOffset": 37728,
      "componentType": 5125,
      "count": 3648,
      "type": "SCALAR"
    }
  ],
  "asset": {
    "extras": {
      "author": "frostyz (https://sketchfab.com/Randomized_guy_.who)",
      "license": "CC-BY-4.0 (http://creativecommons.org/licenses/by/4.0/)",
      "source": "https://sketchfab.com/3d-models/frosty-mittens-connie-dandys-world-592f899010a14c2f9048cc51e5e9f872",
      "title": "Frosty Mittens Connie - Dandy's World"
    },
    "generator": "Sketchfab-16.59.0",
    "version": "2.0"
  },
  "bufferViews": [
    {
      "buffer": 0,
      "byteLength": 52320,
      "name": "floatBufferViews",
      "target": 34963
    },
    {
      "buffer": 0,
      "byteLength": 27392,
      "byteOffset": 52320,
      "byteStride": 8,
      "name": "floatBufferViews",
      "target": 34962
    },
    {
      "buffer": 0,
      "byteLength": 82176,
      "byteOffset": 79712,
      "byteStride": 12,
      "name": "floatBufferViews",
      "target": 34962
    }
  ],
  "buffers": [
    {
      "byteLength": 161888,
      "uri": "scene.bin"
    }
  ],
  "images": [
    {
      "uri": "textures/ConnieMat_baseColor.png"
    }
  ],
  "materials": [
    {
      "doubleSided": true,
      "name": "ConnieMat",
      "pbrMetallicRoughness": {
        "baseColorTexture": {
          "index": 0
        },
        "metallicFactor": 0.0
      }
    }
  ],
  "meshes": [
    {
      "name": "Object_0",
      "primitives": [
        {
          "attributes": {
            "NORMAL": 1,
            "POSITION": 0,
            "TEXCOORD_0": 2
          },
          "indices": 3,
          "material": 0,
          "mode": 4
        }
      ]
    },
    {
      "name": "Object_1",
      "primitives": [
        {
          "attributes": {
            "NORMAL": 5,
            "POSITION": 4,
            "TEXCOORD_0": 6
          },
          "indices": 7,
          "material": 0,
          "mode": 4
        }
      ]
    },
    {
      "name": "Object_2",
      "primitives": [
        {
          "attributes": {
            "NORMAL": 9,
            "POSITION": 8,
            "TEXCOORD_0": 10
          },
          "indices": 11,
          "material": 0,
          "mode": 4
        }
      ]
    },
    {
      "name": "Object_3",
      "primitives": [
        {
          "attributes": {
            "NORMAL": 13,
            "POSITION": 12,
            "TEXCOORD_0": 14
          },
          "indices": 15,
          "material": 0,
          "mode": 4
        }
      ]
    },
    {
      "name": "Object_4",
      "primitives": [
        {
          "attributes": {
            "NORMAL": 17,
            "POSITION": 16,
            "TEXCOORD_0": 18
          },
          "indices": 19,
          "material": 0,
          "mode": 4
        }
      ]
    },
    {
      "name": "Object_5",
      "primitives": [
        {
          "attributes": {
            "NORMAL": 21,
            "POSITION": 20,
            "TEXCOORD_0": 22
          },
          "indices": 23,
          "material": 0,
          "mode": 4
        }
      ]
    },
    {
      "name": "Object_6",
      "primitives": [
        {
          "attributes": {
            "NORMAL": 25,
            "POSITION": 24,
            "TEXCOORD_0": 26
          },
          "indices": 27,
          "material": 0,
          "mode": 4
        }
      ]
    },
    {
      "name": "Object_7",
      "primitives": [
        {
          "attributes": {
            "NORMAL": 29,
            "POSITION": 28,
            "TEXCOORD_0": 30
          },
          "indices": 31,
          "material": 0,
          "mode": 4
        }
      ]
    }
  ],
  "nodes": [
    {
      "children": [
        1
      ],
      "matrix": [
        -1.0,
        -6.290011496532519e-32,
        2.832769343193999e-16,
        0.0,
        2.832769343193999e-16,
        -2.220446049250313e-16,
        1.0,
        0.0,
        0.0,
        1.0,
        2.220446049250313e-16,
        0.0,
        0.0,
        0.0,
        0.0,
        1.0
      ],
      "name": "Sketchfab_model"
    },
    {
      "children": [
        2
      ],
      "name": "root"
    },
    {
      "children": [
        3,
        5,
        7,
        9,
        11,
        13,
        15,
        17
      ],
      "matrix": [
        1.0,
        0.0,
        0.0,
        0.0,
        0.0,
        2.220446049250313e-16,
        1.0,
        0.0,
        0.0,
        -1.0,
        2.220446049250313e-16,
        0.0,
        0.0,
        0.0,
        0.0,
        1.0
      ],
      "name": "GLTF_SceneRootNode"
    },
    {
      "children": [
        4
      ],
      "name": "Head1_0",
      "rotation": [
        0.7071067094802856,
        0.0,
        0.0,
        0.7071068286895752
      ]
    },
    {
      "mesh": 0,
      "name": "Object_4"
    },
    {
      "children": [
        6
      ],
      "name": "LeftLowerArm1_1",
      "rotation": [
        0.7071067094802856,
        0.0,
        0.0,
        0.7071068286895752
      ]
    },
    {
      "mesh": 1,
      "name": "Object_6"
    },
    {
      "children": [
        8
      ],
      "name": "RightLowerArm1_2",
      "rotation": [
        0.7071067094802856,
        0.0,
        0.0,
        0.7071068286895752
      ]
    },
    {
      "mesh": 2,
      "name": "Object_8"
    },
    {
      "children": [
        10
      ],
      "name": "LeftUpperArm1_3",
      "rotation": [
        0.7071067094802856,
        0.0,
        0.0,
        0.7071068286895752
      ]
    },
    {
      "mesh": 3,
      "name": "Object_10"
    },
    {
      "children": [
        12
      ],
      "name": "LeftHand1_4",
      "rotation": [
        0.7071067094802856,
        0.0,
        0.0,
        0.7071068286895752
      ]
    },
    {
      "mesh": 4,
      "name": "Object_12"
    },
    {
      "children": [
        14
      ],
      "name": "RightUpperrArm1_5",
      "rotation": [
        0.7071067094802856,
        0.0,
        0.0,
        0.7071068286895752
      ]
    },
    {
      "mesh": 5,
      "name": "Object_14"
    },
    {
      "children": [
        16
      ],
      "name": "RightHand1_6",
      "rotation": [
        0.7071067094802856,
        0.0,
        0.0,
        0.7071068286895752
      ]
    },
    {
      "mesh": 6,
      "name": "Object_16"
    },
    {
      "children": [
        18
      ],
      "name": "UpperTorso1_7",
      "rotation": [
        0.7071067094802856,
        0.0,
        0.0,
        0.7071068286895752
      ],
      "translation": [
        0.0,
        0.09450685977935791,
        0.07875578105449677
      ]
    },
    {
      "mesh": 7,
      "name": "Object_18"
    }
  ],
  "samplers": [
    {
      "magFilter": 9729,
      "minFilter": 9987,
      "wrapS": 10497,
      "wrapT": 10497
    }
  ],
  "scene": 0,
  "scenes": [
    {
      "name": "Sketchfab_Scene",
      "nodes": [
        0
      ]
    }
  ],
  "textures": [
    {
      "sampler": 0,
      "source": 0
    }
  ]
}
